<?xml version="1.0" standalone="no"?>
<!DOCTYPE svg PUBLIC "-//W3C//DTD SVG 1.1//EN" "http://www.w3.org/Graphics/SVG/1.1/DTD/svg11.dtd" >
<svg xmlns="http://www.w3.org/2000/svg">
<metadata></metadata>
<defs>
<font id="diamondsbold" horiz-adv-x="1691" >
<font-face units-per-em="2048" ascent="1536" descent="-512" />
<missing-glyph horiz-adv-x="593" />
<glyph horiz-adv-x="2048" />
<glyph horiz-adv-x="2048" />
<glyph horiz-adv-x="682" />
<glyph unicode="&#xd;" horiz-adv-x="573" />
<glyph unicode=" "  horiz-adv-x="593" />
<glyph unicode="&#x09;" horiz-adv-x="593" />
<glyph unicode="&#xa0;" horiz-adv-x="593" />
<glyph unicode="!" horiz-adv-x="573" d="M141 0v293h291v-293h-291zM150 1434h276l-135 -969h-10z" />
<glyph unicode="&#x22;" horiz-adv-x="720" d="M174 803v631h57v-631h-57zM489 803v631h58v-631h-58z" />
<glyph unicode="#" horiz-adv-x="1363" d="M115 498v57h276l47 324h-323v57h331l72 498h57l-71 -498h428l72 498h57l-72 -498h260v-57h-268l-47 -324h315v-57h-323l-70 -498h-57l69 498h-428l-69 -498h-58l70 498h-268zM449 555h428l47 324h-428z" />
<glyph unicode="$" horiz-adv-x="1107" d="M72 451h223q0 -106 65 -181t166 -84v476l-39 10q-350 97 -350 405q0 168 109 274.5t280 112.5v154h58v-156q173 -11 266.5 -113.5t93.5 -289.5h-221q0 76 -37 125.5t-102 60.5v-368l28 -9q79 -22 136.5 -44.5t113.5 -59t91 -82.5t56 -112.5t21 -151.5q0 -186 -125.5 -310 t-320.5 -135v-157h-58v155q-201 8 -327.5 138t-126.5 342zM358 1077q0 -72 38 -114.5t130 -71.5v356q-76 -6 -122 -54t-46 -116zM584 188q100 10 159.5 74t59.5 156q0 87 -53 139.5t-166 87.5v-457z" />
<glyph unicode="%" horiz-adv-x="1949" d="M92 827v281q0 153 92.5 249.5t243.5 96.5t243.5 -96t92.5 -248v-283q0 -153 -92.5 -249.5t-243.5 -96.5t-243.5 96.5t-92.5 249.5zM270 827q0 -77 42.5 -125.5t115.5 -48.5t114.5 48.5t41.5 125.5v281q0 77 -41.5 125.5t-114.5 48.5t-115.5 -48.5t-42.5 -125.5v-281z M532 0l711 1434h197l-711 -1434h-197zM1186 326v280q0 153 92.5 249.5t243.5 96.5t243.5 -96t92.5 -248v-282q0 -153 -92.5 -249.5t-243.5 -96.5t-243.5 96.5t-92.5 249.5zM1364 326q0 -77 42.5 -125.5t115.5 -48.5t114 48.5t41 125.5v280q0 77 -41 125.5t-114 48.5 t-115.5 -48.5t-42.5 -125.5v-280z" />
<glyph unicode="&#x26;" horiz-adv-x="1437" d="M96 365q0 215 236 370l78 53l-54 62q-56 64 -83 125.5t-27 144.5q0 148 110 246t275 98q155 0 253.5 -97.5t98.5 -246.5q0 -190 -215 -336l-45 -30l231 -260l234 241l162 -157l-246 -250l295 -328h-312l-145 168q-106 -100 -212 -149.5t-230 -49.5q-189 0 -296.5 111 t-107.5 285zM334 360q0 -79 51 -128.5t139 -49.5q127 0 277 150l-258 301l-49 -33q-160 -108 -160 -240zM465 1122q0 -75 65 -153l54 -62l55 37q64 42 95.5 82.5t31.5 89.5q0 60 -42 99.5t-110 39.5q-67 0 -108 -36t-41 -97z" />
<glyph unicode="'" horiz-adv-x="405" d="M174 803v631h57v-631h-57z" />
<glyph unicode="(" horiz-adv-x="520" d="M125 717q0 148 18 275.5t54 238.5t76 197.5t98 189.5l49 -29q-117 -204 -177.5 -407t-60.5 -465t60.5 -465.5t177.5 -407.5l-49 -28q-58 103 -98 189.5t-76 197.5t-54 238.5t-18 275.5z" />
<glyph unicode=")" horiz-adv-x="520" d="M100 -156q117 204 177.5 407.5t60.5 465.5t-60.5 465t-177.5 407l50 29q58 -103 98 -190t76 -197.5t53.5 -238t17.5 -275.5t-17.5 -275.5t-53.5 -238t-76 -197.5t-98 -190z" />
<glyph unicode="*" horiz-adv-x="835" d="M131 985l229 133l-229 133l29 49l229 -133v267h57v-267l230 133l29 -49l-232 -133l232 -133l-29 -49l-230 133v-266h-57v266l-229 -133z" />
<glyph unicode="+" horiz-adv-x="1271" d="M123 688v57h485v486h58v-486h483v-57h-483v-483h-58v483h-485z" />
<glyph unicode="," horiz-adv-x="563" d="M150 293h284l-270 -795h-14v795z" />
<glyph unicode="-" horiz-adv-x="1193" d="M156 688v57h882v-57h-882z" />
<glyph unicode="." horiz-adv-x="591" d="M90 147l205 207l207 -207l-205 -206z" />
<glyph unicode="/" horiz-adv-x="845" d="M78 -184l624 1802h68l-625 -1802h-67z" />
<glyph unicode="0" horiz-adv-x="1261" d="M135 475v483q0 223 136.5 364.5t359.5 141.5q222 0 358.5 -140.5t136.5 -362.5v-486q0 -223 -136.5 -364.5t-358.5 -141.5q-223 0 -359.5 141.5t-136.5 364.5zM367 475q0 -123 71.5 -202.5t192.5 -79.5q120 0 191 79.5t71 202.5v483q0 123 -71 203t-191 80t-192 -80 t-72 -203v-483z" />
<glyph unicode="1" horiz-adv-x="976" d="M117 0v213h307v899l-307 -149v233l538 283v-1266h269v-213h-807z" />
<glyph unicode="2" horiz-adv-x="1034" d="M113 0v100q0 126 16 215t53.5 156t83 113t121.5 102l133 96q96 68 140.5 130t44.5 147q0 88 -50.5 139t-136.5 51q-82 0 -130 -52t-48 -138h-219q0 188 104 296.5t293 108.5q179 0 293.5 -109t114.5 -296q0 -64 -18 -123t-42 -100.5t-66.5 -86.5t-73.5 -71t-81 -64 l-133 -102q-96 -74 -131 -135.5t-35 -163.5h557v-213h-790z" />
<glyph unicode="3" horiz-adv-x="1110" d="M66 264l202 105q36 -81 99 -128.5t151 -47.5q44 0 85 13t76 38.5t56 68.5t21 97q0 110 -68 167.5t-176 57.5h-193v223h197q85 0 143 53.5t58 145.5q0 89 -55.5 140.5t-141.5 51.5q-135 0 -203 -119l-188 113q132 221 389 221q204 0 320 -110.5t116 -276.5 q0 -227 -200 -315q106 -37 176.5 -131t70.5 -236q0 -134 -65.5 -232t-174 -146t-245.5 -48q-163 0 -270.5 76t-179.5 219z" />
<glyph unicode="4" horiz-adv-x="1282" d="M33 373l643 1061h242v-848h299v-213h-299v-373h-234v373h-651zM408 586h276v479z" />
<glyph unicode="5" horiz-adv-x="1130" d="M39 264l211 109q76 -180 244 -180q102 0 170.5 60.5t68.5 170.5q0 101 -63 156t-170 55h-303l225 799h614v-215h-426l-106 -361h33q80 0 154 -23t140.5 -71.5t107 -136t40.5 -203.5q0 -129 -65 -234t-176 -163t-244 -58q-112 0 -200.5 37.5t-148 100.5t-106.5 157z" />
<glyph unicode="6" horiz-adv-x="1114" d="M98 434q0 177 109 375l346 625h258l-342 -580q67 43 174 43q76 0 147.5 -33.5t126.5 -92.5t88 -147t33 -190q0 -208 -130.5 -336.5t-338.5 -128.5q-211 0 -341 128t-130 337zM328 434q0 -109 66 -175t175 -66q107 0 173.5 66.5t66.5 174.5q0 107 -66.5 174.5t-173.5 67.5 q-108 0 -174.5 -67t-66.5 -175z" />
<glyph unicode="7" horiz-adv-x="1019" d="M80 1219v215h934l-639 -1434h-252l543 1219h-586z" />
<glyph unicode="8" horiz-adv-x="1189" d="M109 395q0 142 70.5 236t176.5 131q-200 88 -200 315q0 163 121 275t321 112q199 0 317.5 -111.5t118.5 -275.5q0 -114 -53 -193t-150 -122q107 -37 178.5 -131.5t71.5 -235.5q0 -200 -137.5 -313t-349.5 -113q-137 0 -245.5 48t-174 146t-65.5 232zM354 410 q0 -105 72 -161t168 -56t169 56t73 161q0 110 -66.5 167.5t-173.5 57.5q-108 0 -175 -57.5t-67 -167.5zM393 1057q0 -92 58.5 -145.5t142.5 -53.5q85 0 143 53.5t58 145.5q0 88 -56.5 140t-142.5 52t-144.5 -52t-58.5 -140z" />
<glyph unicode="9" horiz-adv-x="1114" d="M76 999q0 209 130.5 337t340.5 128t339.5 -128t129.5 -337q0 -176 -107 -372l-348 -627h-258l338 580q-67 -43 -168 -43q-160 0 -278.5 130t-118.5 332zM305 999q0 -107 66.5 -174t175.5 -67q107 0 173 67t66 174q0 109 -66 175.5t-173 66.5q-109 0 -175.5 -66.5 t-66.5 -175.5z" />
<glyph unicode=":" horiz-adv-x="602" d="M156 150v292h290v-292h-290zM156 991v293h290v-293h-290z" />
<glyph unicode=";" horiz-adv-x="595" d="M154 842v293h290v-293h-290zM156 293h284l-270 -795h-14v795z" />
<glyph unicode="&#x3c;" horiz-adv-x="1271" d="M80 690v58l1026 391v-58l-952 -362l952 -363v-57z" />
<glyph unicode="=" horiz-adv-x="1271" d="M123 481v58h1026v-58h-1026zM123 895v57h1026v-57h-1026z" />
<glyph unicode="&#x3e;" horiz-adv-x="1271" d="M166 299v57l950 363l-950 362v58l1026 -391v-58z" />
<glyph unicode="?" horiz-adv-x="968" d="M74 1059q0 189 104 297t293 108q179 0 293.5 -108t114.5 -293q0 -60 -17 -114t-55.5 -107t-62.5 -80t-76 -80l-58 -59q-48 -46 -63 -71.5t-15 -70.5h-210q0 74 18.5 126t44.5 82t79 80q5 4 7.5 6.5t6.5 6t7 6.5l56 54q65 61 90.5 108t25.5 113q0 85 -50 135.5t-136 50.5 q-82 0 -130 -51t-48 -139h-219zM279 0v293h288v-293h-288z" />
<glyph unicode="@" horiz-adv-x="1675" d="M104 717q0 213 96.5 384t267.5 267t384 96t384 -90.5t267 -250t96 -357.5q0 -189 -95 -301.5t-224 -112.5q-148 0 -205 115q-91 -125 -262 -125q-158 0 -258 107.5t-100 269.5q0 163 100 270t258 107q137 0 229 -86v65h154v-444q0 -129 96 -129q59 0 100.5 70t41.5 194 q0 151 -74.5 276t-208.5 198t-299 73t-299 -78.5t-209.5 -215t-75.5 -302.5t75.5 -302.5t209.5 -215t299 -78.5q111 0 212 37t177 104l92 -117q-201 -176 -481 -176q-213 0 -384 96.5t-267.5 267.5t-96.5 384zM618 719q0 -96 59 -161.5t152 -65.5q96 0 153.5 65t57.5 162 q0 96 -57.5 160.5t-153.5 64.5q-94 0 -152.5 -64.5t-58.5 -160.5z" />
<glyph unicode="A" horiz-adv-x="1341" d="M31 0l522 1434h244l506 -1434h-250l-168 500h-430l-174 -500h-250zM528 715h283l-139 411z" />
<glyph unicode="B" horiz-adv-x="1124" d="M174 0v1434h385q186 0 297 -107.5t111 -279.5q0 -203 -150 -289q98 -44 153.5 -130.5t55.5 -209.5q0 -189 -123 -303.5t-317 -114.5h-412zM408 223h163q93 0 151 52.5t58 142.5q0 91 -57.5 143.5t-151.5 52.5h-163v-391zM408 836h137q91 0 137.5 50.5t46.5 141.5 q0 89 -47 140t-137 51h-137v-383z" />
<glyph unicode="C" horiz-adv-x="1423" d="M98 717q0 213 96.5 384t267.5 267t384 96q152 0 284 -50t232 -142l-164 -170q-147 137 -352 137q-145 0 -262 -69t-182.5 -188.5t-65.5 -264.5q0 -222 145 -372t365 -150q214 0 360 143l170 -166q-209 -203 -530 -203q-213 0 -384 96.5t-267.5 267.5t-96.5 384z" />
<glyph unicode="D" horiz-adv-x="1257" d="M174 0v1434h234q215 0 384.5 -88.5t266 -252.5t96.5 -376q0 -149 -43 -268.5t-119.5 -202.5t-184.5 -139t-236 -81.5t-277 -25.5h-121zM408 225q223 0 366.5 136.5t143.5 355.5q0 218 -143.5 354.5t-366.5 136.5v-983z" />
<glyph unicode="E" horiz-adv-x="1024" d="M174 0v1434h717v-215h-483v-365h483v-213h-483v-428h483v-213h-717z" />
<glyph unicode="F" horiz-adv-x="995" d="M174 0v1434h717v-215h-483v-365h483v-213h-483v-641h-234z" />
<glyph unicode="G" horiz-adv-x="1654" d="M98 717q0 213 96.5 384t267.5 267t384 96q311 0 520 -196l-166 -168q-145 139 -354 139q-145 0 -262 -69t-182.5 -188.5t-65.5 -264.5q0 -222 145 -372t365 -150q193 0 330 117t170 302h-381v213h624v-71q0 -190 -59 -341.5t-161.5 -247.5t-236 -147t-286.5 -51 q-213 0 -384 96.5t-267.5 267.5t-96.5 384z" />
<glyph unicode="H" horiz-adv-x="1259" d="M174 0v1434h234v-600h446v600h231v-1434h-231v621h-446v-621h-234z" />
<glyph unicode="I" horiz-adv-x="581" d="M174 0v1434h234v-1434h-234z" />
<glyph unicode="J" horiz-adv-x="1118" d="M47 436h229q0 -117 63.5 -180t160.5 -63t159 63t62 180v998h233v-998q0 -216 -127.5 -341.5t-326.5 -125.5q-198 0 -325.5 125.5t-127.5 341.5z" />
<glyph unicode="K" horiz-adv-x="1050" d="M174 0v1434h234v-674l309 674h264l-346 -717l346 -717h-264l-309 676v-676h-234z" />
<glyph unicode="L" horiz-adv-x="942" d="M174 0v1434h234v-1221h483v-213h-717z" />
<glyph unicode="M" horiz-adv-x="1638" d="M174 0v1434h234l419 -560l404 560h233v-1434h-233v1034l-404 -538l-419 538v-1034h-234z" />
<glyph unicode="N" horiz-adv-x="1441" d="M174 0v1434h234l628 -1031v1031h232v-1434h-232l-628 1024v-1024h-234z" />
<glyph unicode="O" d="M98 717q0 213 96.5 384t267.5 267t384 96q160 0 298.5 -56.5t237 -155t155 -237t56.5 -298.5q0 -213 -96 -384t-267 -267.5t-384 -96.5t-384 96.5t-267.5 267.5t-96.5 384zM336 717q0 -222 145 -372t365 -150q144 0 260.5 68.5t182 188t65.5 265.5q0 221 -145 371.5 t-363 150.5q-145 0 -262 -69t-182.5 -188.5t-65.5 -264.5z" />
<glyph unicode="P" horiz-adv-x="1134" d="M174 0v1434h467q194 0 316 -114.5t122 -303.5q0 -188 -122.5 -303t-315.5 -115h-233v-598h-234zM408 821h219q93 0 150 52.5t57 142.5t-57 142t-150 52h-219v-389z" />
<glyph unicode="Q" d="M98 717q0 213 96.5 384t267.5 267t384 96q160 0 298.5 -56.5t237 -155t155 -237t56.5 -298.5q0 -251 -133 -443l139 -139l-151 -151l-137 135q-199 -150 -465 -150q-213 0 -384 96.5t-267.5 267.5t-96.5 384zM336 717q0 -222 145 -372t365 -150q169 0 297 92l-363 364 l152 152l354 -354q68 123 68 268q0 221 -145 371.5t-363 150.5q-145 0 -262 -69t-182.5 -188.5t-65.5 -264.5z" />
<glyph unicode="R" horiz-adv-x="1167" d="M174 0v1434h438q195 0 317 -114.5t122 -303.5q0 -169 -102.5 -269.5t-274.5 -115.5l401 -631h-272l-395 666v-666h-234zM408 821h190q95 0 152 52.5t57 142.5t-57 142t-152 52h-190v-389z" />
<glyph unicode="S" horiz-adv-x="1126" d="M80 451h223q0 -113 72.5 -189t181.5 -76q115 0 184.5 66t69.5 166q0 94 -60 147t-192 90l-63 17q-351 97 -351 405q0 173 115.5 280t292.5 107q192 0 295.5 -103.5t103.5 -301.5h-221q0 88 -47.5 139t-130.5 51t-134.5 -49t-51.5 -123t41.5 -117.5t144.5 -72.5l68 -19 q79 -22 136.5 -44.5t113 -59t90.5 -82.5t56 -112.5t21 -151.5q0 -194 -136.5 -320.5t-344.5 -126.5q-209 0 -343 131t-134 349z" />
<glyph unicode="T" horiz-adv-x="1099" d="M51 1219v215h998v-215h-381v-1219h-234v1219h-383z" />
<glyph unicode="U" horiz-adv-x="1314" d="M162 475v959h231v-959q0 -123 71.5 -202.5t190.5 -79.5q122 0 193.5 79.5t71.5 202.5v959h233v-959q0 -223 -137 -364.5t-361 -141.5q-221 0 -357 141.5t-136 364.5z" />
<glyph unicode="V" horiz-adv-x="1339" d="M39 1434h256l371 -1104l387 1104h256l-523 -1434h-243z" />
<glyph unicode="W" horiz-adv-x="1886" d="M39 1434h256l379 -1112l397 1112h238l-250 -686l145 -426l398 1112h253l-520 -1434h-243l-150 426l-156 -426h-243z" />
<glyph unicode="X" horiz-adv-x="1028" d="M78 0l305 727l-293 707h277l149 -424l158 424h274l-303 -709l295 -725h-260l-168 453l-172 -453h-262z" />
<glyph unicode="Y" horiz-adv-x="1042" d="M63 1434h263l196 -584l197 584h262l-344 -885v-549h-231v553z" />
<glyph unicode="Z" horiz-adv-x="962" d="M37 0l547 1219h-465v215h813l-549 -1221h451v-213h-797z" />
<glyph unicode="[" horiz-adv-x="614" d="M207 -184v1802h325v-57h-268v-1688h268v-57h-325z" />
<glyph unicode="\" horiz-adv-x="845" d="M76 1618h67l625 -1802h-68z" />
<glyph unicode="]" horiz-adv-x="614" d="M82 -127h268v1688h-268v57h326v-1802h-326v57z" />
<glyph unicode="^" horiz-adv-x="1271" d="M143 717l457 717h72l454 -717h-69l-422 663l-422 -663h-70z" />
<glyph unicode="_" horiz-adv-x="1226" d="M172 -94h883v-58h-883v58z" />
<glyph unicode="`" horiz-adv-x="1228" d="M436 1868h197l160 -293h-197z" />
<glyph unicode="a" horiz-adv-x="1341" d="M31 0l522 1434h244l506 -1434h-246l-606 496l-170 -496h-250zM526 709l400 -322l-254 739z" />
<glyph unicode="b" horiz-adv-x="1224" d="M174 0v1434h387q186 0 297 -107.5t111 -279.5q0 -180 -119 -259q138 -33 217.5 -127.5t79.5 -242.5q0 -189 -123 -303.5t-317 -114.5h-533zM408 223h282q96 0 153.5 51.5t57.5 143.5q0 91 -57.5 143.5t-151.5 52.5h-284v-391zM408 836h139q89 0 136.5 50.5t47.5 141.5 q0 90 -47 140.5t-137 50.5h-139v-383z" />
<glyph unicode="c" horiz-adv-x="1667" d="M98 717q0 213 96.5 384t267.5 267t384 96q200 0 363.5 -84.5t263 -235.5t116.5 -345h-239q-26 192 -166 316t-338 124q-145 0 -262 -69t-182.5 -188.5t-65.5 -264.5q0 -222 145 -372t365 -150q194 0 332.5 116.5t169.5 302.5h241q-31 -288 -236.5 -466.5t-506.5 -178.5 q-213 0 -384 96.5t-267.5 267.5t-96.5 384z" />
<glyph unicode="d" horiz-adv-x="1257" d="M174 0v1434h234q215 0 384.5 -88.5t266 -252.5t96.5 -376q0 -149 -43 -268.5t-119.5 -202.5t-184.5 -139t-236 -81.5t-277 -25.5h-121zM408 225q223 0 366.5 136.5t143.5 355.5q0 218 -143.5 354.5t-366.5 136.5v-983z" />
<glyph unicode="e" horiz-adv-x="1021" d="M174 0v1434h717v-215h-483v-265h483v-215h-483v-526h483v-213h-717z" />
<glyph unicode="f" horiz-adv-x="987" d="M174 0v1434h717v-215h-483v-265h483v-215h-483v-739h-234z" />
<glyph unicode="g" horiz-adv-x="1654" d="M98 717q0 213 96.5 384t267.5 267t384 96q311 0 520 -196l-166 -168q-145 139 -354 139q-145 0 -262 -69t-182.5 -188.5t-65.5 -264.5q0 -222 145 -372t365 -150q193 0 330 117t170 302h-748v213h991v-71q0 -190 -59 -341.5t-161.5 -247.5t-236 -147t-286.5 -51 q-213 0 -384 96.5t-267.5 267.5t-96.5 384z" />
<glyph unicode="h" horiz-adv-x="1519" d="M174 0v1434h234v-600h706v600h232v-1434h-232v621h-706v-621h-234z" />
<glyph unicode="i" horiz-adv-x="989" d="M96 0v213h283v1006h-283v215h799v-215h-283v-1006h283v-213h-799z" />
<glyph unicode="j" horiz-adv-x="942" d="M20 90l140 182q79 -79 182 -79q96 0 149.5 62t53.5 181v998h233v-998q0 -218 -119.5 -342.5t-316.5 -124.5q-198 0 -322 121z" />
<glyph unicode="k" horiz-adv-x="1302" d="M174 0v1434h234v-1010l583 1010h262l-374 -635l338 -799h-263l-221 553l-325 -553h-234z" />
<glyph unicode="l" horiz-adv-x="942" d="M174 0v1434h234v-1221h483v-213h-717z" />
<glyph unicode="m" horiz-adv-x="1738" d="M174 0v1434h234l460 -1133l463 1133h234v-1434h-234v862l-344 -862h-237l-342 862v-862h-234z" />
<glyph unicode="n" horiz-adv-x="1366" d="M174 0v1434h234l550 -535v535h234v-1434h-234v590l-550 530v-1120h-234z" />
<glyph unicode="o" d="M98 717q0 213 96.5 384t267.5 267t384 96q160 0 298.5 -56.5t237 -155t155 -237t56.5 -298.5q0 -213 -96 -384t-267 -267.5t-384 -96.5t-384 96.5t-267.5 267.5t-96.5 384zM336 717q0 -222 145 -372t365 -150q144 0 260.5 68.5t182 188t65.5 265.5q0 221 -145 371.5 t-363 150.5q-145 0 -262 -69t-182.5 -188.5t-65.5 -264.5zM680 717q0 -72 47 -120t119 -48q70 0 117 48t47 120q0 71 -47 119.5t-117 48.5q-71 0 -118.5 -48.5t-47.5 -119.5z" />
<glyph unicode="p" horiz-adv-x="1282" d="M174 0v1434h612q194 0 316.5 -114.5t122.5 -303.5q0 -188 -122.5 -303t-316.5 -115h-378v-598h-234zM408 821h364q93 0 150 52.5t57 142.5t-57 142t-150 52h-364v-389z" />
<glyph unicode="q" horiz-adv-x="1677" d="M86 717h238q0 -222 145 -372t365 -150q165 0 296 94l-888 891q92 127 245 205.5t347 78.5q160 0 298.5 -56.5t237 -155t155 -237t56.5 -298.5q0 -254 -135 -441l141 -141l-151 -151l-138 137q-198 -152 -464 -152q-213 0 -384 96.5t-267.5 267.5t-96.5 384zM555 1167 l717 -716q69 117 69 266q0 221 -144.5 371.5t-362.5 150.5q-166 0 -279 -72z" />
<glyph unicode="r" horiz-adv-x="1353" d="M174 0v1434h649q193 0 316 -115t123 -303q0 -181 -117 -295.5t-299 -122.5l330 -598h-263l-505 948v-948h-234zM512 1210l213 -389h84q93 0 151 52.5t58 142.5t-57.5 142t-151.5 52h-297z" />
<glyph unicode="s" horiz-adv-x="1126" d="M80 451h223q0 -113 72.5 -189t181.5 -76q115 0 184.5 66t69.5 166q0 94 -60 147t-192 90l-63 17q-351 97 -351 405q0 173 115.5 280t292.5 107q192 0 295.5 -103.5t103.5 -301.5h-221q0 88 -47.5 139t-130.5 51t-134.5 -49t-51.5 -123t41.5 -117.5t144.5 -72.5l68 -19 q79 -22 136.5 -44.5t113 -59t90.5 -82.5t56 -112.5t21 -151.5q0 -194 -136.5 -320.5t-344.5 -126.5q-209 0 -343 131t-134 349z" />
<glyph unicode="t" horiz-adv-x="1099" d="M51 1219v215h998v-215h-381v-1219h-234v1219h-383z" />
<glyph unicode="u" horiz-adv-x="1314" d="M162 475v959h231v-959q0 -123 71.5 -202.5t190.5 -79.5q122 0 193.5 79.5t71.5 202.5v959h233v-959q0 -223 -137 -364.5t-361 -141.5q-221 0 -357 141.5t-136 364.5z" />
<glyph unicode="v" horiz-adv-x="1339" d="M39 1434h256l371 -1104l387 1104h256l-523 -1434h-243z" />
<glyph unicode="w" horiz-adv-x="1886" d="M39 1434h256l379 -1112l153 430l-239 682h237l119 -353l127 353h238l-250 -686l145 -426l398 1112h253l-520 -1434h-243l-150 426l-156 -426h-243z" />
<glyph unicode="x" horiz-adv-x="1028" d="M78 0l305 727l-293 707h277l149 -424l158 424h274l-303 -709l295 -725h-260l-168 453l-172 -453h-262z" />
<glyph unicode="y" horiz-adv-x="1013" d="M53 1434h262l189 -584l215 584h256l-541 -1434h-244l199 541z" />
<glyph unicode="z" horiz-adv-x="997" d="M53 0l273 610h-140v215h236l178 394h-465v215h813l-274 -609h147v-215h-243l-179 -397h453v-213h-799z" />
<glyph unicode="{" horiz-adv-x="616" d="M84 688v57h39q66 0 96.5 30.5t30.5 96.5v562q0 184 184 184h101v-57h-101q-66 0 -96.5 -30.5t-30.5 -96.5v-562q0 -107 -78 -155q78 -48 78 -156v-561q0 -66 30.5 -96.5t96.5 -30.5h101v-57h-101q-184 0 -184 184v561q0 66 -30.5 96.5t-96.5 30.5h-39z" />
<glyph unicode="|" horiz-adv-x="471" d="M207 -184v1802h57v-1802h-57z" />
<glyph unicode="}" horiz-adv-x="616" d="M82 -127h100q66 0 96.5 30.5t30.5 96.5v561q0 108 78 156q-78 48 -78 155v562q0 66 -30.5 96.5t-96.5 30.5h-100v57h100q185 0 185 -184v-562q0 -66 30.5 -96.5t96.5 -30.5h38v-57h-38q-66 0 -96.5 -30.5t-30.5 -96.5v-561q0 -184 -185 -184h-100v57z" />
<glyph unicode="~" horiz-adv-x="1271" d="M348 631q0 74 43 121t123 47q43 0 77 -17t53 -37.5t49 -37.5t65 -17q106 0 106 111h58q0 -74 -42.5 -121t-121.5 -47q-43 0 -77 17t-53.5 37t-49.5 37t-64 17q-108 0 -108 -110h-58z" />
<glyph unicode="&#xa1;" horiz-adv-x="571" d="M141 772v293h291v-293h-291zM147 -369l136 969h10l131 -969h-277z" />
<glyph unicode="&#xa2;" horiz-adv-x="1439" d="M78 717q0 152 51 285t141 230t217 158t275 72v156h57v-154h6q152 0 284 -50t232 -142l-163 -170q-147 137 -353 137h-6v-1044h6q215 0 361 143l172 -166q-101 -98 -237 -150.5t-296 -52.5h-6v-153h-57v155q-148 11 -275 71.5t-217 157.5t-141 231t-51 286zM317 717 q0 -205 125 -350t320 -168v1036q-195 -23 -320 -169t-125 -349z" />
<glyph unicode="&#xa3;" horiz-adv-x="1122" d="M109 0v213h141v471h-141v57h141v256q0 218 119 342.5t317 124.5q196 0 322 -123l-140 -180q-80 80 -182 80q-96 0 -150.5 -62.5t-54.5 -181.5v-256h330v-57h-330v-471h547v-213h-919z" />
<glyph unicode="&#xa4;" horiz-adv-x="1093" d="M164 375l121 121q-74 93 -74 219q0 128 76 223l-123 123l41 41l121 -123q89 80 219 80q131 0 221 -84l125 125l39 -39l-125 -125q74 -93 74 -221t-70 -217l121 -121l-39 -41l-121 121q-96 -86 -225 -86t-221 82l-119 -119zM268 715q0 -121 79 -203t198 -82t197.5 82 t78.5 203t-78.5 201.5t-197.5 80.5q-120 0 -198.5 -80.5t-78.5 -201.5z" />
<glyph unicode="&#xa5;" horiz-adv-x="1202" d="M98 434v58h387v61l-34 86h-353v57h330l-287 738h265l196 -584l197 584h262l-287 -738h330v-57h-352l-35 -90v-57h387v-58h-387v-434h-232v434h-387z" />
<glyph unicode="&#xa6;" horiz-adv-x="479" d="M211 -184v725h57v-725h-57zM211 877v741h57v-741h-57z" />
<glyph unicode="&#xa7;" horiz-adv-x="933" d="M123 713q0 97 60 167.5t157 100.5q-168 64 -168 233q0 110 86 180t207 70q131 0 209 -69t78 -193h-72q0 94 -60 146.5t-155 52.5q-93 0 -156 -54.5t-63 -132.5t48 -125t148 -69l68 -14q143 -30 220.5 -95.5t80.5 -187.5q0 -98 -60 -169t-159 -101q170 -68 170 -234 q0 -110 -86 -180t-207 -70q-131 0 -209 69t-78 193h72q0 -94 60 -146t155 -52q93 0 156 54t63 132t-48 125.5t-148 69.5l-68 14q-146 32 -223.5 98t-77.5 187zM195 713q0 -69 41.5 -119.5t101 -73t127.5 -22.5q120 0 197 63t77 162q0 95 -80.5 154t-189.5 59 q-120 0 -197 -62.5t-77 -160.5z" />
<glyph unicode="&#xa8;" horiz-adv-x="1228" d="M254 1698l152 157l157 -157l-155 -154zM666 1698l153 157l156 -157l-154 -154z" />
<glyph unicode="&#xa9;" horiz-adv-x="1736" d="M121 717q0 160 56.5 298.5t155 237t237 155t298.5 56.5q213 0 384 -96t267.5 -267t96.5 -384t-96.5 -384t-267.5 -267.5t-384 -96.5t-384 96.5t-267 267.5t-96 384zM182 717q0 -194 89 -352t246 -248t351 -90t351 90t246 248t89 352t-89 352t-246 248t-351 90t-351 -90 t-246 -248t-89 -352zM535 719q0 147 94.5 245.5t238.5 98.5q131 0 221 -79t109 -206h-57q-17 100 -92 161.5t-181 61.5q-119 0 -197.5 -80.5t-78.5 -201.5t78.5 -203t197.5 -82q100 0 173.5 59.5t95.5 153.5h59q-24 -120 -113 -196t-215 -76q-144 0 -238.5 99t-94.5 245z " />
<glyph unicode="&#xaa;" horiz-adv-x="876" d="M94 717l262 717h172l252 -717h-176l-43 129h-248l-45 -129h-174zM184 453v151h514v-151h-514zM367 997h145l-70 217z" />
<glyph unicode="&#xab;" horiz-adv-x="987" d="M109 717l335 434l41 -37l-303 -397l303 -402l-41 -36zM444 717l336 434l41 -37l-303 -397l303 -402l-41 -36z" />
<glyph unicode="&#xac;" horiz-adv-x="1271" d="M131 688v57h1026v-542h-57v485h-969z" />
<glyph unicode="&#xad;" horiz-adv-x="1193" d="M156 688v57h882v-57h-882z" />
<glyph unicode="&#xae;" horiz-adv-x="1736" d="M121 717q0 160 56.5 298.5t155 237t237 155t298.5 56.5q213 0 384 -96t267.5 -267t96.5 -384t-96.5 -384t-267.5 -267.5t-384 -96.5t-384 96.5t-267 267.5t-96 384zM182 717q0 -194 89 -352t246 -248t351 -90t351 90t246 248t89 352t-89 352t-246 248t-351 90t-351 -90 t-246 -248t-89 -352zM680 383v672h213q91 0 150 -55t59 -146q0 -87 -58.5 -137.5t-150.5 -50.5h-45l260 -283h-72l-264 283h-35v-283h-57zM737 721h158q69 0 107 33.5t38 99.5q0 68 -39.5 106.5t-109.5 38.5h-154v-278z" />
<glyph unicode="&#xaf;" horiz-adv-x="1228" d="M369 1618v186h489v-186h-489z" />
<glyph unicode="&#xb0;" horiz-adv-x="917" d="M125 1120q0 147 95 245.5t239 98.5q145 0 239.5 -98.5t94.5 -245.5q0 -146 -94.5 -245t-239.5 -99q-144 0 -239 99t-95 245zM182 1120q0 -121 79 -202.5t198 -81.5t197.5 81.5t78.5 202.5t-78.5 202t-197.5 81t-198 -81t-79 -202z" />
<glyph unicode="&#xb1;" horiz-adv-x="1271" d="M123 195v57h1026v-57h-1026zM123 831v58h485v485h58v-485h483v-58h-483v-278h-58v278h-485z" />
<glyph unicode="&#xb2;" horiz-adv-x="739" d="M102 707v69q0 88 9.5 148t34.5 104.5t53.5 73t79.5 65.5l83 62q57 40 83 77t26 85t-26.5 76t-73.5 28t-73 -27t-26 -77h-166q0 126 68.5 197t196.5 71q119 0 193.5 -72.5t74.5 -195.5q0 -51 -15 -94.5t-46.5 -81t-55 -59.5t-65.5 -56l-86 -68q-55 -43 -72.5 -74.5 t-17.5 -89.5h348v-161h-527z" />
<glyph unicode="&#xb3;" horiz-adv-x="776" d="M68 883l155 80q20 -48 56.5 -77.5t85.5 -29.5q50 0 90.5 31.5t40.5 89.5q0 63 -38.5 96t-97.5 33h-131v170h133q45 0 77 30t32 80t-29.5 79.5t-76.5 29.5q-76 0 -111 -68l-143 86q85 146 254 146q134 0 210 -73t76 -181q0 -141 -123 -203q66 -26 110 -87t44 -150 q0 -131 -90 -205t-230 -74q-107 0 -177 50.5t-117 146.5z" />
<glyph unicode="&#xb4;" horiz-adv-x="1228" d="M436 1575l160 293h197l-160 -293h-197z" />
<glyph unicode="&#xb6;" horiz-adv-x="1177" d="M84 1090q0 147 95 245.5t239 98.5h694v-62h-242v-1372h-57v1372h-336v-561q71 15 125 63l41 -43q-70 -63 -166 -81v-750h-57v745h-2q-144 0 -239 99.5t-95 245.5zM141 1090q0 -121 79 -203t198 -82h2v567h-2q-120 0 -198.5 -80.5t-78.5 -201.5z" />
<glyph unicode="&#xb7;" horiz-adv-x="608" d="M98 711l205 207l207 -207l-205 -207z" />
<glyph unicode="&#xb8;" horiz-adv-x="1228" d="M389 -295h150q0 -34 20.5 -56t52.5 -22q34 0 55 22t21 56q0 31 -21.5 53.5t-54.5 22.5v153q96 0 161 -66t65 -163t-65 -164t-161 -67q-95 0 -159 67t-64 164z" />
<glyph unicode="&#xb9;" horiz-adv-x="716" d="M104 707v161h197v525l-197 -90v176l375 190v-801h166v-161h-541z" />
<glyph unicode="&#xba;" horiz-adv-x="974" d="M113 1075q0 162 106 268.5t268 106.5q161 0 267 -107t106 -268t-106 -267t-267 -106q-163 0 -268.5 106t-105.5 267zM231 453v151h514v-151h-514zM281 1075q0 -91 58.5 -154t147.5 -63q87 0 146 63.5t59 153.5t-59 152.5t-146 62.5q-90 0 -148 -62t-58 -153z" />
<glyph unicode="&#xbb;" horiz-adv-x="989" d="M166 315l303 402l-303 397l41 37l336 -434l-336 -438zM504 315l303 402l-303 397l41 37l336 -434l-336 -438z" />
<glyph unicode="&#xbc;" horiz-adv-x="1832" d="M115 502v162h196v524l-196 -90v176l374 190v-800h166v-162h-540zM498 0l710 1434h197l-711 -1434h-196zM983 236l414 696h182v-551h186v-145h-186v-236h-176v236h-420zM1239 381h164v291z" />
<glyph unicode="&#xbd;" horiz-adv-x="1792" d="M109 502v162h196v524l-196 -90v176l374 190v-800h166v-162h-540zM494 0l710 1434h197l-711 -1434h-196zM1161 0v70q0 88 9.5 148t34 104.5t53 73t79.5 65.5l84 61q57 40 83 77t26 85t-26.5 76t-73.5 28t-73 -27t-26 -77h-166q0 126 68.5 197t196.5 71q119 0 193.5 -72.5 t74.5 -195.5q0 -51 -15 -94.5t-46.5 -81t-55 -59.5t-65.5 -56l-86 -67q-55 -44 -73 -75.5t-18 -88.5h349v-162h-527z" />
<glyph unicode="&#xbe;" horiz-adv-x="1798" d="M72 678l155 80q20 -48 56.5 -77.5t85.5 -29.5q50 0 90.5 31.5t40.5 89.5q0 63 -38 96t-97 33h-132v170h134q45 0 76.5 30t31.5 81q0 50 -29.5 79t-76.5 29q-77 0 -111 -67l-143 86q85 145 254 145q134 0 210 -73t76 -181q0 -142 -123 -203q66 -26 110 -87t44 -150 q0 -131 -89.5 -205t-229.5 -74q-107 0 -177.5 50.5t-117.5 146.5zM463 0l711 1434h196l-711 -1434h-196zM948 236l414 696h182v-551h187v-145h-187v-236h-176v236h-420zM1204 381h164v291z" />
<glyph unicode="&#xbf;" horiz-adv-x="956" d="M72 33q0 60 17 114t55.5 107t62.5 80t76 80l57 59q48 46 63 71t15 70h211q0 -25 -2.5 -47t-4 -39t-9.5 -35.5t-11 -29.5t-16 -28.5t-17.5 -24.5t-22.5 -25.5t-22.5 -23.5t-27.5 -26.5t-29 -27.5l-57 -53q-65 -62 -91 -108.5t-26 -112.5q0 -86 50.5 -136.5t135.5 -50.5 q83 0 130.5 50.5t47.5 138.5h222q0 -188 -105.5 -296t-294.5 -108q-179 0 -293 108.5t-114 293.5zM383 803v293h291v-293h-291z" />
<glyph unicode="&#xc0;" horiz-adv-x="1341" d="M31 0l522 1434h244l506 -1434h-250l-168 500h-430l-174 -500h-250zM403 1868h197l160 -293h-197zM528 715h283l-139 411z" />
<glyph unicode="&#xc1;" horiz-adv-x="1341" d="M31 0l522 1434h244l506 -1434h-250l-168 500h-430l-174 -500h-250zM528 715h283l-139 411zM586 1575l159 293h197l-160 -293h-196z" />
<glyph unicode="&#xc2;" horiz-adv-x="1341" d="M31 0l522 1434h244l506 -1434h-250l-168 500h-430l-174 -500h-250zM385 1575l190 293h201l189 -293h-199l-92 141l-90 -141h-199zM528 715h283l-139 411z" />
<glyph unicode="&#xc3;" horiz-adv-x="1341" d="M31 0l522 1434h244l506 -1434h-250l-168 500h-430l-174 -500h-250zM377 1753q61 94 162 94q54 0 103.5 -22.5t91 -45t77.5 -22.5q63 0 100 55l58 -135q-61 -94 -158 -94q-54 0 -104 22.5t-91.5 45t-76.5 22.5q-68 0 -105 -55zM528 715h283l-139 411z" />
<glyph unicode="&#xc4;" horiz-adv-x="1341" d="M31 0l522 1434h244l506 -1434h-250l-168 500h-430l-174 -500h-250zM313 1698l152 157l158 -157l-156 -154zM528 715h283l-139 411zM725 1698l154 157l155 -157l-153 -154z" />
<glyph unicode="&#xc5;" horiz-adv-x="1341" d="M31 0l522 1434h244l506 -1434h-250l-168 500h-430l-174 -500h-250zM451 1751q0 97 64 163t159 66q96 0 160.5 -66t64.5 -163t-64.5 -164t-160.5 -67q-95 0 -159 67t-64 164zM528 715h283l-139 411zM592 1751q0 -37 23.5 -61.5t58.5 -24.5q37 0 60.5 24.5t23.5 61.5 q0 34 -24 59t-60 25q-35 0 -58.5 -25t-23.5 -59z" />
<glyph unicode="&#xc6;" horiz-adv-x="1687" d="M29 0l737 1434h786v-215h-483v-365h483v-213h-483v-428h483v-213h-716v500h-299l-250 -500h-258zM645 715h191v377z" />
<glyph unicode="&#xc7;" horiz-adv-x="1423" d="M98 717q0 213 96.5 384t267.5 267t384 96q152 0 284 -50t232 -142l-164 -170q-147 137 -352 137q-145 0 -262 -69t-182.5 -188.5t-65.5 -264.5q0 -222 145 -372t365 -150q214 0 360 143l170 -166q-209 -203 -530 -203q-213 0 -384 96.5t-267.5 267.5t-96.5 384zM616 -295 h150q0 -34 21 -56t53 -22q33 0 54 22t21 56q0 32 -21 54t-54 22v153q96 0 160.5 -66t64.5 -163t-64.5 -164t-160.5 -67q-95 0 -159.5 67t-64.5 164z" />
<glyph unicode="&#xc8;" horiz-adv-x="1024" d="M174 0v1434h717v-215h-483v-365h483v-213h-483v-428h483v-213h-717zM301 1868h197l159 -293h-196z" />
<glyph unicode="&#xc9;" horiz-adv-x="1024" d="M174 0v1434h717v-215h-483v-365h483v-213h-483v-428h483v-213h-717zM436 1575l160 293h197l-160 -293h-197z" />
<glyph unicode="&#xca;" horiz-adv-x="1024" d="M174 0v1434h717v-215h-483v-365h483v-213h-483v-428h483v-213h-717zM250 1575l190 293h201l188 -293h-198l-92 141l-90 -141h-199z" />
<glyph unicode="&#xcb;" horiz-adv-x="1024" d="M174 0v1434h717v-215h-483v-365h483v-213h-483v-428h483v-213h-717zM182 1698l152 157l158 -157l-156 -154zM594 1698l154 157l155 -157l-153 -154z" />
<glyph unicode="&#xcc;" horiz-adv-x="581" d="M27 1868h196l160 -293h-197zM174 0v1434h234v-1434h-234z" />
<glyph unicode="&#xcd;" horiz-adv-x="581" d="M174 0v1434h234v-1434h-234zM199 1575l159 293h197l-160 -293h-196z" />
<glyph unicode="&#xce;" horiz-adv-x="581" d="M4 1575l191 293h200l189 -293h-199l-92 141l-90 -141h-199zM174 0v1434h234v-1434h-234z" />
<glyph unicode="&#xcf;" horiz-adv-x="581" d="M-72 1698l152 157l158 -157l-156 -154zM174 0v1434h234v-1434h-234zM340 1698l154 157l155 -157l-153 -154z" />
<glyph unicode="&#xd0;" horiz-adv-x="1265" d="M72 621v186h110v627h234q215 0 384.5 -88.5t266 -252.5t96.5 -376q0 -149 -43 -268.5t-119.5 -202.5t-185 -139t-237 -81.5t-277.5 -25.5h-119v621h-110zM416 225q222 0 365 136.5t143 355.5q0 218 -143 354.5t-365 136.5v-401h200v-186h-200v-396z" />
<glyph unicode="&#xd1;" horiz-adv-x="1441" d="M174 0v1434h234l628 -1031v1031h232v-1434h-232l-628 1024v-1024h-234zM420 1753q61 94 162 94q54 0 103.5 -22.5t91 -45t77.5 -22.5q63 0 100 55l58 -135q-61 -94 -158 -94q-54 0 -104 22.5t-91.5 45t-76.5 22.5q-68 0 -105 -55z" />
<glyph unicode="&#xd2;" d="M98 717q0 213 96.5 384t267.5 267t384 96q160 0 298.5 -56.5t237 -155t155 -237t56.5 -298.5q0 -213 -96 -384t-267 -267.5t-384 -96.5t-384 96.5t-267.5 267.5t-96.5 384zM336 717q0 -222 145 -372t365 -150q144 0 260.5 68.5t182 188t65.5 265.5q0 221 -145 371.5 t-363 150.5q-145 0 -262 -69t-182.5 -188.5t-65.5 -264.5zM608 1868h197l160 -293h-197z" />
<glyph unicode="&#xd3;" d="M98 717q0 213 96.5 384t267.5 267t384 96q160 0 298.5 -56.5t237 -155t155 -237t56.5 -298.5q0 -213 -96 -384t-267 -267.5t-384 -96.5t-384 96.5t-267.5 267.5t-96.5 384zM336 717q0 -222 145 -372t365 -150q144 0 260.5 68.5t182 188t65.5 265.5q0 221 -145 371.5 t-363 150.5q-145 0 -262 -69t-182.5 -188.5t-65.5 -264.5zM735 1575l160 293h197l-160 -293h-197z" />
<glyph unicode="&#xd4;" d="M98 717q0 213 96.5 384t267.5 267t384 96q160 0 298.5 -56.5t237 -155t155 -237t56.5 -298.5q0 -213 -96 -384t-267 -267.5t-384 -96.5t-384 96.5t-267.5 267.5t-96.5 384zM336 717q0 -222 145 -372t365 -150q144 0 260.5 68.5t182 188t65.5 265.5q0 221 -145 371.5 t-363 150.5q-145 0 -262 -69t-182.5 -188.5t-65.5 -264.5zM563 1575l191 293h200l189 -293h-199l-92 141l-90 -141h-199z" />
<glyph unicode="&#xd5;" d="M98 717q0 213 96.5 384t267.5 267t384 96q160 0 298.5 -56.5t237 -155t155 -237t56.5 -298.5q0 -213 -96 -384t-267 -267.5t-384 -96.5t-384 96.5t-267.5 267.5t-96.5 384zM336 717q0 -222 145 -372t365 -150q144 0 260.5 68.5t182 188t65.5 265.5q0 221 -145 371.5 t-363 150.5q-145 0 -262 -69t-182.5 -188.5t-65.5 -264.5zM555 1753q61 94 162 94q54 0 103.5 -22.5t91 -45t77.5 -22.5q64 0 101 55l57 -135q-61 -94 -158 -94q-54 0 -104 22.5t-91.5 45t-76.5 22.5q-68 0 -105 -55z" />
<glyph unicode="&#xd6;" d="M98 717q0 213 96.5 384t267.5 267t384 96q160 0 298.5 -56.5t237 -155t155 -237t56.5 -298.5q0 -213 -96 -384t-267 -267.5t-384 -96.5t-384 96.5t-267.5 267.5t-96.5 384zM336 717q0 -222 145 -372t365 -150q144 0 260.5 68.5t182 188t65.5 265.5q0 221 -145 371.5 t-363 150.5q-145 0 -262 -69t-182.5 -188.5t-65.5 -264.5zM492 1698l151 157l158 -157l-156 -154zM903 1698l154 157l155 -157l-153 -154z" />
<glyph unicode="&#xd7;" horiz-adv-x="1271" d="M252 375l342 342l-342 344l41 41l342 -344l342 342l41 -41l-342 -342l342 -340l-41 -41l-342 340l-342 -342z" />
<glyph unicode="&#xd8;" d="M98 717q0 213 96.5 384t267.5 267t384 96q201 0 375 -94l47 64h235l-131 -177q106 -101 163.5 -239.5t57.5 -300.5q0 -213 -96 -384t-267 -267.5t-384 -96.5q-206 0 -373 90l-45 -59h-235l129 172q-106 102 -165 242t-59 303zM336 717q0 -210 129 -355l616 822 q-113 55 -235 55q-145 0 -262 -69t-182.5 -188.5t-65.5 -264.5zM614 248q103 -53 232 -53q144 0 260.5 68.5t182 188t65.5 265.5q0 204 -125 348z" />
<glyph unicode="&#xd9;" horiz-adv-x="1314" d="M162 475v959h231v-959q0 -123 71.5 -202.5t190.5 -79.5q122 0 193.5 79.5t71.5 202.5v959h233v-959q0 -223 -137 -364.5t-361 -141.5q-221 0 -357 141.5t-136 364.5zM416 1868h196l160 -293h-197z" />
<glyph unicode="&#xda;" horiz-adv-x="1314" d="M162 475v959h231v-959q0 -123 71.5 -202.5t190.5 -79.5q122 0 193.5 79.5t71.5 202.5v959h233v-959q0 -223 -137 -364.5t-361 -141.5q-221 0 -357 141.5t-136 364.5zM551 1575l160 293h196l-159 -293h-197z" />
<glyph unicode="&#xdb;" horiz-adv-x="1314" d="M162 475v959h231v-959q0 -123 71.5 -202.5t190.5 -79.5q122 0 193.5 79.5t71.5 202.5v959h233v-959q0 -223 -137 -364.5t-361 -141.5q-221 0 -357 141.5t-136 364.5zM369 1575l190 293h201l188 -293h-198l-93 141l-90 -141h-198z" />
<glyph unicode="&#xdc;" horiz-adv-x="1314" d="M162 475v959h231v-959q0 -123 71.5 -202.5t190.5 -79.5q122 0 193.5 79.5t71.5 202.5v959h233v-959q0 -223 -137 -364.5t-361 -141.5q-221 0 -357 141.5t-136 364.5zM297 1698l152 157l157 -157l-155 -154zM709 1698l153 157l156 -157l-154 -154z" />
<glyph unicode="&#xdd;" horiz-adv-x="1042" d="M63 1434h263l196 -584l197 584h262l-344 -885v-549h-231v553zM416 1575l159 293h197l-160 -293h-196z" />
<glyph unicode="&#xde;" horiz-adv-x="1146" d="M174 0v1434h234v-299h233q194 0 316 -114.5t122 -303.5q0 -187 -122 -301.5t-316 -114.5h-233v-301h-234zM408 524h219q93 0 150 51.5t57 141.5t-57 142t-150 52h-219v-387z" />
<glyph unicode="&#xdf;" horiz-adv-x="1327" d="M174 0v1434h995l-274 -566q155 -34 245.5 -150t90.5 -278q0 -194 -124 -317t-327 -123h-205v223h191q104 0 161.5 60.5t57.5 156.5q0 92 -55.5 153t-153.5 64h-233l270 562h-407v-1219h-232z" />
<glyph unicode="&#xe0;" horiz-adv-x="1341" d="M31 0l522 1434h244l506 -1434h-246l-606 496l-170 -496h-250zM416 1868h196l160 -293h-197zM526 709l400 -322l-254 739z" />
<glyph unicode="&#xe1;" horiz-adv-x="1341" d="M31 0l522 1434h244l506 -1434h-246l-606 496l-170 -496h-250zM526 709l400 -322l-254 739zM573 1575l160 293h197l-160 -293h-197z" />
<glyph unicode="&#xe2;" horiz-adv-x="1341" d="M31 0l522 1434h244l506 -1434h-246l-606 496l-170 -496h-250zM385 1575l190 293h201l189 -293h-199l-92 141l-90 -141h-199zM526 709l400 -322l-254 739z" />
<glyph unicode="&#xe3;" horiz-adv-x="1341" d="M31 0l522 1434h244l506 -1434h-246l-606 496l-170 -496h-250zM377 1753q61 94 162 94q54 0 103.5 -22.5t91 -45t77.5 -22.5q63 0 100 55l58 -135q-61 -94 -158 -94q-54 0 -104 22.5t-91.5 45t-76.5 22.5q-68 0 -105 -55zM526 709l400 -322l-254 739z" />
<glyph unicode="&#xe4;" horiz-adv-x="1341" d="M31 0l522 1434h244l506 -1434h-246l-606 496l-170 -496h-250zM313 1698l152 157l158 -157l-156 -154zM526 709l400 -322l-254 739zM725 1698l154 157l155 -157l-153 -154z" />
<glyph unicode="&#xe5;" horiz-adv-x="1341" d="M31 0l522 1434h244l506 -1434h-246l-606 496l-170 -496h-250zM451 1751q0 97 64 163t159 66q96 0 160.5 -66t64.5 -163t-64.5 -164t-160.5 -67q-95 0 -159 67t-64 164zM526 709l400 -322l-254 739zM592 1751q0 -37 23.5 -61.5t58.5 -24.5q37 0 60.5 24.5t23.5 61.5 q0 34 -24 59t-60 25q-35 0 -58.5 -25t-23.5 -59z" />
<glyph unicode="&#xe6;" horiz-adv-x="1685" d="M29 0l737 1434h786v-215h-483v-265h483v-215h-483v-526h483v-213h-716l-340 416l-209 -416h-258zM594 610l242 -272v752z" />
<glyph unicode="&#xe7;" horiz-adv-x="1667" d="M98 717q0 213 96.5 384t267.5 267t384 96q200 0 363.5 -84.5t263 -235.5t116.5 -345h-239q-26 192 -166 316t-338 124q-145 0 -262 -69t-182.5 -188.5t-65.5 -264.5q0 -222 145 -372t365 -150q194 0 332.5 116.5t169.5 302.5h241q-31 -288 -236.5 -466.5t-506.5 -178.5 q-213 0 -384 96.5t-267.5 267.5t-96.5 384zM621 -295h149q0 -34 21 -56t53 -22q34 0 55 22t21 56q0 31 -21.5 53.5t-54.5 22.5v153q96 0 160.5 -66t64.5 -163t-64.5 -164t-160.5 -67q-95 0 -159 67t-64 164z" />
<glyph unicode="&#xe8;" horiz-adv-x="1021" d="M174 0v1434h717v-215h-483v-265h483v-215h-483v-526h483v-213h-717zM293 1868h196l160 -293h-196z" />
<glyph unicode="&#xe9;" horiz-adv-x="1021" d="M174 0v1434h717v-215h-483v-265h483v-215h-483v-526h483v-213h-717zM436 1575l160 293h197l-160 -293h-197z" />
<glyph unicode="&#xea;" horiz-adv-x="1021" d="M174 0v1434h717v-215h-483v-265h483v-215h-483v-526h483v-213h-717zM250 1575l190 293h201l188 -293h-198l-92 141l-90 -141h-199z" />
<glyph unicode="&#xeb;" horiz-adv-x="1021" d="M174 0v1434h717v-215h-483v-265h483v-215h-483v-526h483v-213h-717zM180 1698l152 157l157 -157l-155 -154zM592 1698l153 157l156 -157l-153 -154z" />
<glyph unicode="&#xec;" horiz-adv-x="989" d="M96 0v213h283v1006h-283v215h799v-215h-283v-1006h283v-213h-799zM250 1868h196l160 -293h-196z" />
<glyph unicode="&#xed;" horiz-adv-x="989" d="M96 0v213h283v1006h-283v215h799v-215h-283v-1006h283v-213h-799zM393 1575l160 293h197l-160 -293h-197z" />
<glyph unicode="&#xee;" horiz-adv-x="989" d="M96 0v213h283v1006h-283v215h799v-215h-283v-1006h283v-213h-799zM207 1575l190 293h201l188 -293h-198l-92 141l-90 -141h-199z" />
<glyph unicode="&#xef;" horiz-adv-x="989" d="M96 0v213h283v1006h-283v215h799v-215h-283v-1006h283v-213h-799zM135 1698l152 157l157 -157l-155 -154zM547 1698l153 157l156 -157l-154 -154z" />
<glyph unicode="&#xf0;" horiz-adv-x="1265" d="M72 621v186h110v627h234q215 0 384.5 -88.5t266 -252.5t96.5 -376q0 -149 -43 -268.5t-119.5 -202.5t-185 -139t-237 -81.5t-277.5 -25.5h-119v621h-110zM416 225q222 0 365 136.5t143 355.5q0 218 -143 354.5t-365 136.5v-401h200v-186h-200v-396z" />
<glyph unicode="&#xf1;" horiz-adv-x="1366" d="M174 0v1434h234l550 -535v535h234v-1434h-234v590l-550 530v-1120h-234zM369 1753q61 94 161 94q54 0 103.5 -22.5t91.5 -45t78 -22.5q63 0 100 55l58 -135q-61 -94 -158 -94q-54 0 -104 22.5t-92 45t-77 22.5q-67 0 -104 -55z" />
<glyph unicode="&#xf2;" d="M98 717q0 213 96.5 384t267.5 267t384 96q160 0 298.5 -56.5t237 -155t155 -237t56.5 -298.5q0 -213 -96 -384t-267 -267.5t-384 -96.5t-384 96.5t-267.5 267.5t-96.5 384zM336 717q0 -222 145 -372t365 -150q144 0 260.5 68.5t182 188t65.5 265.5q0 221 -145 371.5 t-363 150.5q-145 0 -262 -69t-182.5 -188.5t-65.5 -264.5zM608 1868h197l160 -293h-197z" />
<glyph unicode="&#xf3;" d="M98 717q0 213 96.5 384t267.5 267t384 96q160 0 298.5 -56.5t237 -155t155 -237t56.5 -298.5q0 -213 -96 -384t-267 -267.5t-384 -96.5t-384 96.5t-267.5 267.5t-96.5 384zM336 717q0 -222 145 -372t365 -150q144 0 260.5 68.5t182 188t65.5 265.5q0 221 -145 371.5 t-363 150.5q-145 0 -262 -69t-182.5 -188.5t-65.5 -264.5zM735 1575l160 293h197l-160 -293h-197z" />
<glyph unicode="&#xf4;" d="M98 717q0 213 96.5 384t267.5 267t384 96q160 0 298.5 -56.5t237 -155t155 -237t56.5 -298.5q0 -213 -96 -384t-267 -267.5t-384 -96.5t-384 96.5t-267.5 267.5t-96.5 384zM336 717q0 -222 145 -372t365 -150q144 0 260.5 68.5t182 188t65.5 265.5q0 221 -145 371.5 t-363 150.5q-145 0 -262 -69t-182.5 -188.5t-65.5 -264.5zM563 1575l191 293h200l189 -293h-199l-92 141l-90 -141h-199z" />
<glyph unicode="&#xf5;" d="M98 717q0 213 96.5 384t267.5 267t384 96q160 0 298.5 -56.5t237 -155t155 -237t56.5 -298.5q0 -213 -96 -384t-267 -267.5t-384 -96.5t-384 96.5t-267.5 267.5t-96.5 384zM336 717q0 -222 145 -372t365 -150q144 0 260.5 68.5t182 188t65.5 265.5q0 221 -145 371.5 t-363 150.5q-145 0 -262 -69t-182.5 -188.5t-65.5 -264.5zM555 1753q61 94 162 94q54 0 103.5 -22.5t91 -45t77.5 -22.5q64 0 101 55l57 -135q-61 -94 -158 -94q-54 0 -104 22.5t-91.5 45t-76.5 22.5q-68 0 -105 -55z" />
<glyph unicode="&#xf6;" d="M98 717q0 213 96.5 384t267.5 267t384 96q160 0 298.5 -56.5t237 -155t155 -237t56.5 -298.5q0 -213 -96 -384t-267 -267.5t-384 -96.5t-384 96.5t-267.5 267.5t-96.5 384zM336 717q0 -222 145 -372t365 -150q144 0 260.5 68.5t182 188t65.5 265.5q0 221 -145 371.5 t-363 150.5q-145 0 -262 -69t-182.5 -188.5t-65.5 -264.5zM492 1698l151 157l158 -157l-156 -154zM903 1698l154 157l155 -157l-153 -154z" />
<glyph unicode="&#xf7;" horiz-adv-x="1271" d="M123 688v57h1026v-57h-1026zM524 307l113 113l115 -113l-113 -114zM524 1114l113 113l115 -113l-113 -115z" />
<glyph unicode="&#xf8;" d="M98 717q0 213 96.5 384t267.5 267t384 96q201 0 375 -94l47 64h235l-131 -177q106 -101 163.5 -239.5t57.5 -300.5q0 -213 -96 -384t-267 -267.5t-384 -96.5q-206 0 -373 90l-45 -59h-235l129 172q-106 102 -165 242t-59 303zM336 717q0 -210 129 -355l616 822 q-113 55 -235 55q-145 0 -262 -69t-182.5 -188.5t-65.5 -264.5zM614 248q103 -53 232 -53q144 0 260.5 68.5t182 188t65.5 265.5q0 204 -125 348z" />
<glyph unicode="&#xf9;" horiz-adv-x="1314" d="M162 475v959h231v-959q0 -123 71.5 -202.5t190.5 -79.5q122 0 193.5 79.5t71.5 202.5v959h233v-959q0 -223 -137 -364.5t-361 -141.5q-221 0 -357 141.5t-136 364.5zM416 1868h196l160 -293h-197z" />
<glyph unicode="&#xfa;" horiz-adv-x="1314" d="M162 475v959h231v-959q0 -123 71.5 -202.5t190.5 -79.5q122 0 193.5 79.5t71.5 202.5v959h233v-959q0 -223 -137 -364.5t-361 -141.5q-221 0 -357 141.5t-136 364.5zM551 1575l160 293h196l-159 -293h-197z" />
<glyph unicode="&#xfb;" horiz-adv-x="1314" d="M162 475v959h231v-959q0 -123 71.5 -202.5t190.5 -79.5q122 0 193.5 79.5t71.5 202.5v959h233v-959q0 -223 -137 -364.5t-361 -141.5q-221 0 -357 141.5t-136 364.5zM369 1575l190 293h201l188 -293h-198l-93 141l-90 -141h-198z" />
<glyph unicode="&#xfc;" horiz-adv-x="1314" d="M162 475v959h231v-959q0 -123 71.5 -202.5t190.5 -79.5q122 0 193.5 79.5t71.5 202.5v959h233v-959q0 -223 -137 -364.5t-361 -141.5q-221 0 -357 141.5t-136 364.5zM297 1698l152 157l157 -157l-155 -154zM709 1698l153 157l156 -157l-154 -154z" />
<glyph unicode="&#xfd;" horiz-adv-x="1013" d="M53 1434h262l189 -584l215 584h256l-541 -1434h-244l199 541zM395 1575l160 293h197l-160 -293h-197z" />
<glyph unicode="&#xfe;" horiz-adv-x="1286" d="M174 0v1434h234v-299h378q194 0 316.5 -114.5t122.5 -303.5q0 -187 -122.5 -301.5t-316.5 -114.5h-378v-301h-234zM408 524h364q93 0 150 51.5t57 141.5t-57 142t-150 52h-364v-387z" />
<glyph unicode="&#xff;" horiz-adv-x="1013" d="M53 1434h262l189 -584l215 584h256l-541 -1434h-244l199 541zM145 1698l152 157l158 -157l-156 -154zM557 1698l154 157l155 -157l-153 -154z" />
<glyph unicode="&#x152;" horiz-adv-x="2222" d="M98 717q0 213 96.5 384t267.5 267t384 96q157 0 292 -56.5t234 -158.5v185h717v-215h-483v-365h483v-213h-483v-428h483v-213h-717v180q-99 -100 -234 -155.5t-292 -55.5q-213 0 -384 96.5t-267.5 267.5t-96.5 384zM336 717q0 -222 145 -372t365 -150q144 0 260.5 68.5 t182 188t65.5 265.5q0 221 -145 371.5t-363 150.5q-145 0 -262 -69t-182.5 -188.5t-65.5 -264.5z" />
<glyph unicode="&#x153;" horiz-adv-x="2220" d="M98 717q0 213 96.5 384t267.5 267t384 96q157 0 292 -56.5t234 -158.5v185h717v-215h-483v-265h483v-215h-483v-526h483v-213h-717v180q-99 -100 -234 -155.5t-292 -55.5q-213 0 -384 96.5t-267.5 267.5t-96.5 384zM336 717q0 -222 145 -372t365 -150q144 0 260.5 68.5 t182 188t65.5 265.5q0 221 -145 371.5t-363 150.5q-145 0 -262 -69t-182.5 -188.5t-65.5 -264.5zM680 717q0 -72 47 -120t119 -48q70 0 117 48t47 120q0 71 -47 119.5t-117 48.5q-71 0 -118.5 -48.5t-47.5 -119.5z" />
<glyph unicode="&#x178;" horiz-adv-x="1042" d="M63 1434h263l196 -584l197 584h262l-344 -885v-549h-231v553zM162 1698l151 157l158 -157l-156 -154zM573 1698l154 157l156 -157l-154 -154z" />
<glyph unicode="&#x2c6;" horiz-adv-x="1228" d="M324 1575l190 293h201l188 -293h-198l-93 141l-90 -141h-198z" />
<glyph unicode="&#x2dc;" horiz-adv-x="1228" d="M317 1753q61 94 162 94q54 0 103.5 -22.5t91.5 -45t78 -22.5q63 0 100 55l57 -135q-61 -94 -157 -94q-54 0 -104 22.5t-92 45t-77 22.5q-67 0 -104 -55z" />
<glyph unicode="&#x2000;" horiz-adv-x="990" />
<glyph unicode="&#x2001;" horiz-adv-x="1980" />
<glyph unicode="&#x2002;" horiz-adv-x="990" />
<glyph unicode="&#x2003;" horiz-adv-x="1980" />
<glyph unicode="&#x2004;" horiz-adv-x="660" />
<glyph unicode="&#x2005;" horiz-adv-x="495" />
<glyph unicode="&#x2006;" horiz-adv-x="330" />
<glyph unicode="&#x2007;" horiz-adv-x="330" />
<glyph unicode="&#x2008;" horiz-adv-x="247" />
<glyph unicode="&#x2009;" horiz-adv-x="396" />
<glyph unicode="&#x200a;" horiz-adv-x="110" />
<glyph unicode="&#x2010;" horiz-adv-x="1193" d="M156 688v57h882v-57h-882z" />
<glyph unicode="&#x2011;" horiz-adv-x="1193" d="M156 688v57h882v-57h-882z" />
<glyph unicode="&#x2012;" horiz-adv-x="1193" d="M156 688v57h882v-57h-882z" />
<glyph unicode="&#x2013;" horiz-adv-x="1486" d="M156 688v57h1175v-57h-1175z" />
<glyph unicode="&#x2014;" horiz-adv-x="1863" d="M156 688v57h1552v-57h-1552z" />
<glyph unicode="&#x2018;" horiz-adv-x="536" d="M92 639l270 795h15v-795h-285z" />
<glyph unicode="&#x2019;" horiz-adv-x="503" d="M158 639v795h284l-270 -795h-14z" />
<glyph unicode="&#x201a;" horiz-adv-x="563" d="M150 293h284l-270 -795h-14v795z" />
<glyph unicode="&#x201c;" horiz-adv-x="1005" d="M92 639l270 795h15v-795h-285zM561 639l270 795h15v-795h-285z" />
<glyph unicode="&#x201d;" horiz-adv-x="972" d="M158 639v795h284l-270 -795h-14zM629 639v795h284l-270 -795h-14z" />
<glyph unicode="&#x201e;" horiz-adv-x="1032" d="M150 293h284l-270 -795h-14v795zM618 293h285l-270 -795h-15v795z" />
<glyph unicode="&#x2022;" horiz-adv-x="856" d="M135 717l291 295l295 -295l-293 -293z" />
<glyph unicode="&#x2026;" horiz-adv-x="1611" d="M92 147l205 207l207 -207l-205 -206zM600 147l205 207l207 -207l-205 -206zM1110 147l205 207l207 -207l-205 -206z" />
<glyph unicode="&#x202f;" horiz-adv-x="396" />
<glyph unicode="&#x2039;" horiz-adv-x="651" d="M109 717l335 434l41 -37l-303 -397l303 -402l-41 -36z" />
<glyph unicode="&#x203a;" horiz-adv-x="651" d="M166 315l303 402l-303 397l41 37l336 -434l-336 -438z" />
<glyph unicode="&#x205f;" horiz-adv-x="495" />
<glyph unicode="&#x20ac;" horiz-adv-x="1564" d="M72 586v57h125q-2 25 -2 74t2 74h-125v57h133q43 273 246 444.5t491 171.5q152 0 284 -50t232 -142l-166 -170q-144 137 -350 137q-185 0 -320.5 -109t-175.5 -282h822v-57h-832q-4 -25 -4 -74q0 -51 4 -74h832v-57h-822q40 -174 175.5 -282.5t320.5 -108.5q105 0 198 38 t160 105l173 -166q-101 -98 -237 -150.5t-294 -52.5q-289 0 -491.5 171t-245.5 446h-133z" />
<glyph unicode="&#x2122;" horiz-adv-x="1292" d="M139 1376v58h389v-58h-166v-452h-57v452h-166zM633 924v510h53l188 -199l191 199h53v-510h-57v424l-180 -197h-11l-180 197v-424h-57z" />
<glyph unicode="&#x25fc;" horiz-adv-x="1433" d="M0 0v1434h1434v-1434h-1434z" />
<glyph unicode="&#xfb01;" horiz-adv-x="1986" d="M174 0v1434h717v-215h-483v-265h483v-215h-483v-739h-234zM1092 0v213h282v1006h-282v215h798v-215h-282v-1006h282v-213h-798z" />
<glyph unicode="&#xfb02;" horiz-adv-x="1921" d="M174 0v1434h717v-215h-483v-265h483v-215h-483v-739h-234zM1153 0v1434h233v-1221h484v-213h-717z" />
</font>
</defs>
</svg>
