<?xml version="1.0" encoding="utf-8"?>
<!-- Generator: Adobe Illustrator 17.1.0, SVG Export Plug-In . SVG Version: 6.00 Build 0)  -->
<!DOCTYPE svg PUBLIC "-//W3C//DTD SVG 1.1//EN" "http://www.w3.org/Graphics/SVG/1.1/DTD/svg11.dtd">
<svg version="1.1" id="Layer_1" xmlns="http://www.w3.org/2000/svg" xmlns:xlink="http://www.w3.org/1999/xlink" x="0px" y="0px"
	 viewBox="0 0 329.996 18.046" enable-background="new 0 0 329.996 18.046" xml:space="preserve">
<g>
	<path fill="#FFFFFF" d="M0,17.676V0.437h8.62v2.586H2.808v4.384H8.62v2.561H2.808v5.147H8.62v2.562H0z"/>
	<path fill="#FFFFFF" d="M11.661,0.437h5.271c3.103,0,5.27,1.97,5.27,5.024c0,2.783-1.847,4.384-4.531,4.63l4.827,7.585h-3.276
		l-4.753-8.004v8.004h-2.808V0.437z M14.469,3.121v4.68h2.291c1.502,0,2.512-0.887,2.512-2.34s-1.01-2.34-2.512-2.34H14.469z"/>
	<path fill="#FFFFFF" d="M24.888,0.437h2.808v17.239h-2.808V0.437z"/>
	<path fill="#FFFFFF" d="M43.48,4.427c-1.083-1.01-2.537-1.65-4.236-1.65c-3.546,0-6.132,2.758-6.132,6.28
		c0,3.546,2.586,6.28,6.132,6.28c1.749,0,3.25-0.665,4.334-1.724l2.044,1.995c-1.601,1.552-3.792,2.438-6.378,2.438
		c-5.197,0-8.989-3.793-8.989-8.989s3.792-8.989,8.989-8.989c2.462,0,4.63,0.862,6.206,2.315L43.48,4.427z"/>
	<path fill="#ED1847" d="M55.573,10.214h-5.369v7.462h-2.808V0.437h2.808v7.216h5.369V0.437h2.783v17.239h-2.783V10.214z"/>
	<path fill="#ED1847" d="M73.666,0.437v11.525c0,3.547-2.364,6.083-5.984,6.083c-3.571,0-5.935-2.537-5.935-6.083V0.437h2.783
		v11.525c0,1.921,1.207,3.399,3.152,3.399c1.995,0,3.177-1.478,3.177-3.399V0.437H73.666z"/>
	<path fill="#ED1847" d="M82.792,3.023v14.653h-2.808V3.023h-4.605V0.437h11.994v2.586H82.792z"/>
	<path fill="#ED1847" d="M101.019,4.427c-1.083-1.01-2.537-1.65-4.236-1.65c-3.546,0-6.132,2.758-6.132,6.28
		c0,3.546,2.586,6.28,6.132,6.28c1.749,0,3.25-0.665,4.334-1.724l2.044,1.995c-1.601,1.552-3.792,2.438-6.378,2.438
		c-5.197,0-8.989-3.793-8.989-8.989s3.792-8.989,8.989-8.989c2.462,0,4.63,0.862,6.206,2.315L101.019,4.427z"/>
	<path fill="#ED1847" d="M113.111,10.214h-5.369v7.462h-2.808V0.437h2.808v7.216h5.369V0.437h2.783v17.239h-2.783V10.214z"/>
	<path fill="#ED1847" d="M119.38,0.437h2.808v17.239h-2.808V0.437z"/>
	<path fill="#ED1847" d="M128.459,5.362v12.314h-2.808V0.437h2.808l7.561,12.388V0.437h2.783v17.239h-2.783L128.459,5.362z"/>
	<path fill="#ED1847" d="M149.083,4.944c0-1.404-0.812-2.291-2.143-2.291c-1.354,0-2.241,0.911-2.241,2.069
		c0,1.182,0.566,1.822,2.241,2.291l0.813,0.221c2.881,0.788,5.024,1.946,5.024,5.418c0,3.127-2.463,5.369-5.788,5.369
		c-3.3,0-5.738-2.216-5.738-5.763h2.685c0,1.798,1.305,3.177,3.054,3.177c1.872,0,3.054-1.207,3.054-2.783
		c0-1.552-0.985-2.291-3.029-2.857l-0.763-0.197c-2.857-0.788-4.211-2.413-4.211-4.876c0-2.808,2.093-4.655,4.901-4.655
		c3.054,0,4.802,1.675,4.802,4.876H149.083z"/>
	<path fill="#ED1847" d="M163.185,0.067c5.196,0,8.989,3.793,8.989,8.989s-3.792,8.989-8.989,8.989
		c-5.197,0-8.989-3.793-8.989-8.989S157.988,0.067,163.185,0.067z M163.185,15.336c3.521,0,6.107-2.733,6.107-6.28
		c0-3.522-2.586-6.28-6.107-6.28c-3.546,0-6.132,2.758-6.132,6.28C157.053,12.603,159.639,15.336,163.185,15.336z"/>
	<path fill="#ED1847" d="M177.55,5.362v12.314h-2.808V0.437h2.808l7.561,12.388V0.437h2.783v17.239h-2.783L177.55,5.362z"/>
</g>
<g>
	<path fill="#FFFFFF" d="M191.483,0.37h5.615c3.079,0,5.271,1.97,5.271,5.024c0,3.029-2.192,5.024-5.271,5.024h-2.808v7.191h-2.808
		V0.37z M194.291,3.054v4.68h2.635c1.478,0,2.487-0.887,2.487-2.34s-1.01-2.34-2.487-2.34H194.291z"/>
	<path fill="#FFFFFF" d="M216.026,0.37v11.525c0,3.547-2.364,6.083-5.984,6.083c-3.571,0-5.935-2.537-5.935-6.083V0.37h2.783v11.525
		c0,1.921,1.207,3.399,3.152,3.399c1.995,0,3.177-1.478,3.177-3.399V0.37H216.026z"/>
	<path fill="#FFFFFF" d="M219.417,0.37h5.271c3.103,0,5.27,1.97,5.27,5.024c0,2.783-1.847,4.384-4.531,4.63l4.827,7.585h-3.275
		l-4.753-8.004v8.004h-2.808V0.37z M222.224,3.054v4.68h2.291c1.502,0,2.512-0.887,2.512-2.34s-1.01-2.34-2.512-2.34H222.224z"/>
	<path fill="#FFFFFF" d="M232.655,17.609V0.37h8.62v2.586h-5.812v4.384h5.812V9.9h-5.812v5.147h5.812v2.562H232.655z"/>
	<path fill="#ED1847" d="M247.124,9.9v7.708h-2.808V0.37h8.62v2.586h-5.812v4.384h5.812V9.9H247.124z"/>
	<path fill="#ED1847" d="M255.455,0.37h2.808v17.239h-2.808V0.37z"/>
	<path fill="#ED1847" d="M274.048,4.359c-1.083-1.01-2.537-1.65-4.236-1.65c-3.546,0-6.132,2.758-6.132,6.28
		c0,3.546,2.586,6.28,6.132,6.28c1.749,0,3.25-0.665,4.334-1.724l2.044,1.995c-1.601,1.552-3.792,2.438-6.378,2.438
		c-5.197,0-8.989-3.793-8.989-8.989S264.615,0,269.812,0c2.462,0,4.63,0.862,6.206,2.315L274.048,4.359z"/>
	<path fill="#ED1847" d="M284.565,2.956v14.653h-2.808V2.956h-4.605V0.37h11.994v2.586H284.565z"/>
	<path fill="#ED1847" d="M290.93,0.37h2.808v17.239h-2.808V0.37z"/>
	<path fill="#ED1847" d="M305.287,0c5.196,0,8.989,3.793,8.989,8.989s-3.792,8.989-8.989,8.989c-5.197,0-8.989-3.793-8.989-8.989
		S300.09,0,305.287,0z M305.287,15.269c3.521,0,6.107-2.733,6.107-6.28c0-3.522-2.586-6.28-6.107-6.28
		c-3.546,0-6.132,2.758-6.132,6.28C299.155,12.536,301.741,15.269,305.287,15.269z"/>
	<path fill="#ED1847" d="M319.652,5.295v12.314h-2.808V0.37h2.808l7.561,12.388V0.37h2.783v17.239h-2.783L319.652,5.295z"/>
</g>
</svg>
